<svg width="174" height="172" viewBox="0 0 174 172" fill="none" xmlns="http://www.w3.org/2000/svg">
<path d="M22.1543 17.7927L28.1543 11.8617H52.1534L58.1534 17.7927H22.1543Z" fill="url(#paint0_radial_482_3313)" fill-opacity="0.2"/>
<path d="M10.1531 29.6559L16.1531 23.7248H64.1545L70.1545 29.6559H10.1531Z" fill="url(#paint1_radial_482_3313)" fill-opacity="0.2"/>
<path d="M1.84643 41.5175L0 39.6923L4.15357 35.5865H76.1541L82.1541 41.5175H1.84643Z" fill="url(#paint2_radial_482_3313)" fill-opacity="0.2"/>
<path d="M13.846 53.3792L7.846 47.4481H166.154L160.154 53.3792H13.846Z" fill="url(#paint3_radial_482_3313)" fill-opacity="0.2"/>
<path d="M25.8456 65.2408L19.8456 59.3098H154.154L148.154 65.2408H25.8456Z" fill="url(#paint4_radial_482_3313)" fill-opacity="0.2"/>
<path d="M37.8467 77.104L31.8467 71.173H142.153L136.153 77.104H37.8467Z" fill="url(#paint5_radial_482_3313)" fill-opacity="0.2"/>
<path d="M43.8461 88.9657L46.8462 86.0001L43.8463 83.0346H130.154L127.154 86.0001L130.154 88.9657H43.8461Z" fill="url(#paint6_radial_482_3313)" fill-opacity="0.2"/>
<path d="M31.8465 100.827L37.8465 94.8963H136.153L142.153 100.827H31.8465Z" fill="url(#paint7_radial_482_3313)" fill-opacity="0.2"/>
<path d="M19.8469 112.689L25.8469 106.758H148.153L154.153 112.689H19.8469Z" fill="url(#paint8_radial_482_3313)" fill-opacity="0.2"/>
<path d="M7.84581 124.552L13.8458 118.621H160.154L166.154 124.552H7.84581Z" fill="url(#paint9_radial_482_3313)" fill-opacity="0.2"/>
<path d="M4.15394 136.414L9.48225e-05 132.308L1.84624 130.483H82.1539L76.1539 136.414H4.15394Z" fill="url(#paint10_radial_482_3313)" fill-opacity="0.2"/>
<path d="M16.1535 148.275L10.1535 142.344H70.1543L64.1543 148.275H16.1535Z" fill="url(#paint11_radial_482_3313)" fill-opacity="0.2"/>
<path d="M28.1547 160.139L22.1547 154.208H58.1532L52.1532 160.139H28.1547Z" fill="url(#paint12_radial_482_3313)" fill-opacity="0.2"/>
<path d="M151.845 154.208L145.845 160.139H121.847L115.847 154.208H151.845Z" fill="url(#paint13_radial_482_3313)" fill-opacity="0.2"/>
<path d="M163.846 142.344L157.846 148.275H109.846L103.846 142.344H163.846Z" fill="url(#paint14_radial_482_3313)" fill-opacity="0.2"/>
<path d="M172.154 130.483L174 132.308L169.846 136.414H97.8461L91.8461 130.483H172.154Z" fill="url(#paint15_radial_482_3313)" fill-opacity="0.2"/>
<path d="M127.846 166.069H139.846L133.846 172L127.846 166.069Z" fill="url(#paint16_radial_482_3313)" fill-opacity="0.2"/>
<path d="M46.1536 166.069L40.1539 172L34.1542 166.069H46.1536Z" fill="url(#paint17_radial_482_3313)" fill-opacity="0.2"/>
<path d="M169.846 35.5865L174 39.6923L172.154 41.5175H91.8459L97.8459 35.5865H169.846Z" fill="url(#paint18_radial_482_3313)" fill-opacity="0.2"/>
<path d="M157.847 23.7248L163.847 29.6559H103.845L109.845 23.7248H157.847Z" fill="url(#paint19_radial_482_3313)" fill-opacity="0.2"/>
<path d="M145.846 11.8617L151.846 17.7927H115.847L121.847 11.8617H145.846Z" fill="url(#paint20_radial_482_3313)" fill-opacity="0.2"/>
<path d="M133.846 0L139.846 5.93104H127.846L133.846 0Z" fill="url(#paint21_radial_482_3313)" fill-opacity="0.2"/>
<path d="M40.1538 0L34.1538 5.93104H46.1538L40.1538 0Z" fill="url(#paint22_radial_482_3313)" fill-opacity="0.2"/>
<defs>
<radialGradient id="paint0_radial_482_3313" cx="0" cy="0" r="1" gradientUnits="userSpaceOnUse" gradientTransform="translate(87 86) rotate(48.3042) scale(137.799 137.992)">
<stop stop-color="white"/>
<stop offset="1" stop-color="white" stop-opacity="0"/>
</radialGradient>
<radialGradient id="paint1_radial_482_3313" cx="0" cy="0" r="1" gradientUnits="userSpaceOnUse" gradientTransform="translate(87 86) rotate(48.3042) scale(137.799 137.992)">
<stop stop-color="white"/>
<stop offset="1" stop-color="white" stop-opacity="0"/>
</radialGradient>
<radialGradient id="paint2_radial_482_3313" cx="0" cy="0" r="1" gradientUnits="userSpaceOnUse" gradientTransform="translate(87 86) rotate(48.3042) scale(137.799 137.992)">
<stop stop-color="white"/>
<stop offset="1" stop-color="white" stop-opacity="0"/>
</radialGradient>
<radialGradient id="paint3_radial_482_3313" cx="0" cy="0" r="1" gradientUnits="userSpaceOnUse" gradientTransform="translate(87 86) rotate(48.3042) scale(137.799 137.992)">
<stop stop-color="white"/>
<stop offset="1" stop-color="white" stop-opacity="0"/>
</radialGradient>
<radialGradient id="paint4_radial_482_3313" cx="0" cy="0" r="1" gradientUnits="userSpaceOnUse" gradientTransform="translate(87 86) rotate(48.3042) scale(137.799 137.992)">
<stop stop-color="white"/>
<stop offset="1" stop-color="white" stop-opacity="0"/>
</radialGradient>
<radialGradient id="paint5_radial_482_3313" cx="0" cy="0" r="1" gradientUnits="userSpaceOnUse" gradientTransform="translate(87 86) rotate(48.3042) scale(137.799 137.992)">
<stop stop-color="white"/>
<stop offset="1" stop-color="white" stop-opacity="0"/>
</radialGradient>
<radialGradient id="paint6_radial_482_3313" cx="0" cy="0" r="1" gradientUnits="userSpaceOnUse" gradientTransform="translate(87 86) rotate(48.3042) scale(137.799 137.992)">
<stop stop-color="white"/>
<stop offset="1" stop-color="white" stop-opacity="0"/>
</radialGradient>
<radialGradient id="paint7_radial_482_3313" cx="0" cy="0" r="1" gradientUnits="userSpaceOnUse" gradientTransform="translate(87 86) rotate(48.3042) scale(137.799 137.992)">
<stop stop-color="white"/>
<stop offset="1" stop-color="white" stop-opacity="0"/>
</radialGradient>
<radialGradient id="paint8_radial_482_3313" cx="0" cy="0" r="1" gradientUnits="userSpaceOnUse" gradientTransform="translate(87 86) rotate(48.3042) scale(137.799 137.992)">
<stop stop-color="white"/>
<stop offset="1" stop-color="white" stop-opacity="0"/>
</radialGradient>
<radialGradient id="paint9_radial_482_3313" cx="0" cy="0" r="1" gradientUnits="userSpaceOnUse" gradientTransform="translate(87 86) rotate(48.3042) scale(137.799 137.992)">
<stop stop-color="white"/>
<stop offset="1" stop-color="white" stop-opacity="0"/>
</radialGradient>
<radialGradient id="paint10_radial_482_3313" cx="0" cy="0" r="1" gradientUnits="userSpaceOnUse" gradientTransform="translate(87 86) rotate(48.3042) scale(137.799 137.992)">
<stop stop-color="white"/>
<stop offset="1" stop-color="white" stop-opacity="0"/>
</radialGradient>
<radialGradient id="paint11_radial_482_3313" cx="0" cy="0" r="1" gradientUnits="userSpaceOnUse" gradientTransform="translate(87 86) rotate(48.3042) scale(137.799 137.992)">
<stop stop-color="white"/>
<stop offset="1" stop-color="white" stop-opacity="0"/>
</radialGradient>
<radialGradient id="paint12_radial_482_3313" cx="0" cy="0" r="1" gradientUnits="userSpaceOnUse" gradientTransform="translate(87 86) rotate(48.3042) scale(137.799 137.992)">
<stop stop-color="white"/>
<stop offset="1" stop-color="white" stop-opacity="0"/>
</radialGradient>
<radialGradient id="paint13_radial_482_3313" cx="0" cy="0" r="1" gradientUnits="userSpaceOnUse" gradientTransform="translate(87 86) rotate(48.3042) scale(137.799 137.992)">
<stop stop-color="white"/>
<stop offset="1" stop-color="white" stop-opacity="0"/>
</radialGradient>
<radialGradient id="paint14_radial_482_3313" cx="0" cy="0" r="1" gradientUnits="userSpaceOnUse" gradientTransform="translate(87 86) rotate(48.3042) scale(137.799 137.992)">
<stop stop-color="white"/>
<stop offset="1" stop-color="white" stop-opacity="0"/>
</radialGradient>
<radialGradient id="paint15_radial_482_3313" cx="0" cy="0" r="1" gradientUnits="userSpaceOnUse" gradientTransform="translate(87 86) rotate(48.3042) scale(137.799 137.992)">
<stop stop-color="white"/>
<stop offset="1" stop-color="white" stop-opacity="0"/>
</radialGradient>
<radialGradient id="paint16_radial_482_3313" cx="0" cy="0" r="1" gradientUnits="userSpaceOnUse" gradientTransform="translate(87 86) rotate(48.3042) scale(137.799 137.992)">
<stop stop-color="white"/>
<stop offset="1" stop-color="white" stop-opacity="0"/>
</radialGradient>
<radialGradient id="paint17_radial_482_3313" cx="0" cy="0" r="1" gradientUnits="userSpaceOnUse" gradientTransform="translate(87 86) rotate(48.3042) scale(137.799 137.992)">
<stop stop-color="white"/>
<stop offset="1" stop-color="white" stop-opacity="0"/>
</radialGradient>
<radialGradient id="paint18_radial_482_3313" cx="0" cy="0" r="1" gradientUnits="userSpaceOnUse" gradientTransform="translate(87 86) rotate(48.3042) scale(137.799 137.992)">
<stop stop-color="white"/>
<stop offset="1" stop-color="white" stop-opacity="0"/>
</radialGradient>
<radialGradient id="paint19_radial_482_3313" cx="0" cy="0" r="1" gradientUnits="userSpaceOnUse" gradientTransform="translate(87 86) rotate(48.3042) scale(137.799 137.992)">
<stop stop-color="white"/>
<stop offset="1" stop-color="white" stop-opacity="0"/>
</radialGradient>
<radialGradient id="paint20_radial_482_3313" cx="0" cy="0" r="1" gradientUnits="userSpaceOnUse" gradientTransform="translate(87 86) rotate(48.3042) scale(137.799 137.992)">
<stop stop-color="white"/>
<stop offset="1" stop-color="white" stop-opacity="0"/>
</radialGradient>
<radialGradient id="paint21_radial_482_3313" cx="0" cy="0" r="1" gradientUnits="userSpaceOnUse" gradientTransform="translate(87 86) rotate(48.3042) scale(137.799 137.992)">
<stop stop-color="white"/>
<stop offset="1" stop-color="white" stop-opacity="0"/>
</radialGradient>
<radialGradient id="paint22_radial_482_3313" cx="0" cy="0" r="1" gradientUnits="userSpaceOnUse" gradientTransform="translate(87 86) rotate(48.3042) scale(137.799 137.992)">
<stop stop-color="white"/>
<stop offset="1" stop-color="white" stop-opacity="0"/>
</radialGradient>
</defs>
</svg>
