<svg width="300" height="267" fill="none" xmlns="http://www.w3.org/2000/svg"><g opacity=".3" stroke-width=".5"><path d="M299.75 75c0 20.565-16.678 39.25-43.796 52.809C228.851 141.361 191.391 149.75 150 149.75c-41.391 0-78.851-8.389-105.954-21.941C16.928 114.25.25 95.565.25 75c0-20.565 16.678-39.25 43.796-52.81C71.149 8.64 108.609.25 150 .25c41.391 0 78.851 8.389 105.954 21.94C283.072 35.75 299.75 54.436 299.75 75Z" stroke="url(#a)"/><path d="M299.75 83.334c0 20.564-16.678 39.25-43.796 52.809-27.103 13.551-64.563 21.94-105.954 21.94-41.391 0-78.851-8.389-105.954-21.94C16.928 122.584.25 103.898.25 83.333c0-20.564 16.678-39.25 43.796-52.809C71.149 16.972 108.609 8.584 150 8.584c41.391 0 78.851 8.389 105.954 21.94 27.118 13.56 43.796 32.245 43.796 52.81Z" stroke="url(#b)"/><path d="M299.75 91.666c0 20.565-16.678 39.251-43.796 52.81-27.103 13.551-64.563 21.941-105.954 21.941-41.391 0-78.851-8.39-105.954-21.941C16.928 130.917.25 112.231.25 91.666c0-20.564 16.678-39.25 43.796-52.809C71.149 25.305 108.609 16.917 150 16.917c41.391 0 78.851 8.388 105.954 21.94 27.118 13.56 43.796 32.245 43.796 52.81Z" stroke="url(#c)"/><path d="M299.75 100c0 20.565-16.678 39.25-43.796 52.809C228.851 166.361 191.391 174.75 150 174.75c-41.391 0-78.851-8.389-105.954-21.941C16.928 139.25.25 120.565.25 100c0-20.565 16.678-39.25 43.796-52.81C71.149 33.64 108.609 25.25 150 25.25c41.391 0 78.851 8.389 105.954 21.94C283.072 60.75 299.75 79.436 299.75 100Z" stroke="url(#d)"/><path d="M299.75 108.333c0 20.565-16.678 39.251-43.796 52.81-27.103 13.551-64.563 21.94-105.954 21.94-41.391 0-78.851-8.389-105.954-21.94C16.928 147.584.25 128.898.25 108.333c0-20.564 16.678-39.25 43.796-52.809C71.149 41.972 108.609 33.584 150 33.584c41.391 0 78.851 8.388 105.954 21.94 27.118 13.56 43.796 32.245 43.796 52.809Z" stroke="url(#e)"/><path d="M299.75 116.667c0 20.564-16.678 39.25-43.796 52.809-27.103 13.551-64.563 21.941-105.954 21.941-41.391 0-78.851-8.39-105.954-21.941C16.928 155.917.25 137.231.25 116.667c0-20.566 16.678-39.25 43.796-52.81C71.149 50.306 108.609 41.917 150 41.917c41.391 0 78.851 8.389 105.954 21.94 27.118 13.56 43.796 32.245 43.796 52.81Z" stroke="url(#f)"/><path d="M299.75 125c0 20.565-16.678 39.25-43.796 52.809C228.851 191.361 191.391 199.75 150 199.75c-41.391 0-78.851-8.389-105.954-21.941C16.928 164.25.25 145.565.25 125c0-20.565 16.678-39.25 43.796-52.81C71.149 58.64 108.609 50.25 150 50.25c41.391 0 78.851 8.389 105.954 21.94 27.118 13.56 43.796 32.245 43.796 52.81Z" stroke="url(#g)"/><path d="M299.75 133.333c0 20.565-16.678 39.251-43.796 52.81-27.103 13.551-64.563 21.94-105.954 21.94-41.391 0-78.851-8.389-105.954-21.94C16.928 172.584.25 153.898.25 133.333c0-20.564 16.678-39.25 43.796-52.809C71.149 66.972 108.609 58.584 150 58.584c41.391 0 78.851 8.388 105.954 21.94 27.118 13.56 43.796 32.245 43.796 52.809Z" stroke="url(#h)"/><path d="M299.75 141.667c0 20.564-16.678 39.25-43.796 52.809-27.103 13.551-64.563 21.941-105.954 21.941-41.391 0-78.851-8.39-105.954-21.941C16.928 180.917.25 162.231.25 141.667c0-20.565 16.678-39.251 43.796-52.81C71.149 75.305 108.609 66.917 150 66.917c41.391 0 78.851 8.388 105.954 21.94 27.118 13.559 43.796 32.245 43.796 52.81Z" stroke="url(#i)"/><path d="M299.75 150c0 20.565-16.678 39.25-43.796 52.809C228.851 216.361 191.391 224.75 150 224.75c-41.391 0-78.851-8.389-105.954-21.941C16.928 189.25.25 170.565.25 150c0-20.565 16.678-39.25 43.796-52.81C71.149 83.64 108.609 75.25 150 75.25c41.391 0 78.851 8.389 105.954 21.94 27.118 13.56 43.796 32.245 43.796 52.81Z" stroke="url(#j)"/><path d="M299.75 158.333c0 20.565-16.678 39.251-43.796 52.81-27.103 13.551-64.563 21.94-105.954 21.94-41.391 0-78.851-8.389-105.954-21.94C16.928 197.584.25 178.898.25 158.333c0-20.564 16.678-39.25 43.796-52.809C71.149 91.972 108.609 83.584 150 83.584c41.391 0 78.851 8.388 105.954 21.94 27.118 13.559 43.796 32.245 43.796 52.809Z" stroke="url(#k)"/><path d="M299.75 166.667c0 20.564-16.678 39.25-43.796 52.809-27.103 13.551-64.563 21.941-105.954 21.941-41.391 0-78.851-8.39-105.954-21.941C16.928 205.917.25 187.231.25 166.667c0-20.565 16.678-39.251 43.796-52.81 27.103-13.551 64.563-21.94 105.954-21.94 41.391 0 78.851 8.389 105.954 21.94 27.118 13.559 43.796 32.245 43.796 52.81Z" stroke="url(#l)"/><path d="M299.75 175c0 20.565-16.678 39.25-43.796 52.809C228.851 241.361 191.391 249.75 150 249.75c-41.391 0-78.851-8.389-105.954-21.941C16.928 214.25.25 195.565.25 175c0-20.565 16.678-39.25 43.796-52.809C71.149 108.639 108.609 100.25 150 100.25c41.391 0 78.851 8.389 105.954 21.941C283.072 135.75 299.75 154.435 299.75 175Z" stroke="url(#m)"/><path d="M299.75 183.333c0 20.565-16.678 39.251-43.796 52.81-27.103 13.551-64.563 21.94-105.954 21.94-41.391 0-78.851-8.389-105.954-21.94C16.928 222.584.25 203.898.25 183.333c0-20.564 16.678-39.25 43.796-52.809 27.103-13.551 64.563-21.941 105.954-21.941 41.391 0 78.851 8.39 105.954 21.941 27.118 13.559 43.796 32.245 43.796 52.809Z" stroke="url(#n)"/><path d="M299.75 191.667c0 20.564-16.678 39.25-43.796 52.809-27.103 13.551-64.563 21.941-105.954 21.941-41.391 0-78.851-8.39-105.954-21.941C16.928 230.917.25 212.231.25 191.667c0-20.565 16.678-39.251 43.796-52.81 27.103-13.551 64.563-21.94 105.954-21.94 41.391 0 78.851 8.389 105.954 21.94 27.118 13.559 43.796 32.245 43.796 52.81Z" stroke="url(#o)"/></g><defs><linearGradient id="h" x1="150" y1="58.334" x2="150" y2="208.333" gradientUnits="userSpaceOnUse"><stop stop-color="#fff"/><stop offset="1" stop-color="#807D7D" stop-opacity=".54"/></linearGradient><linearGradient id="a" x1="150" y1="0" x2="150" y2="150" gradientUnits="userSpaceOnUse"><stop stop-color="#fff"/><stop offset="1" stop-color="#807D7D" stop-opacity=".54"/></linearGradient><linearGradient id="c" x1="150" y1="16.666" x2="150" y2="166.667" gradientUnits="userSpaceOnUse"><stop stop-color="#fff"/><stop offset="1" stop-color="#807D7D" stop-opacity=".54"/></linearGradient><linearGradient id="d" x1="150" y1="25" x2="150" y2="175" gradientUnits="userSpaceOnUse"><stop stop-color="#fff"/><stop offset="1" stop-color="#807D7D" stop-opacity=".54"/></linearGradient><linearGradient id="e" x1="150" y1="33.334" x2="150" y2="183.333" gradientUnits="userSpaceOnUse"><stop stop-color="#fff"/><stop offset="1" stop-color="#807D7D" stop-opacity=".54"/></linearGradient><linearGradient id="f" x1="150" y1="41.666" x2="150" y2="191.667" gradientUnits="userSpaceOnUse"><stop stop-color="#fff"/><stop offset="1" stop-color="#807D7D" stop-opacity=".54"/></linearGradient><linearGradient id="g" x1="150" y1="50" x2="150" y2="200" gradientUnits="userSpaceOnUse"><stop stop-color="#fff"/><stop offset="1" stop-color="#807D7D" stop-opacity=".54"/></linearGradient><linearGradient id="b" x1="150" y1="8.334" x2="150" y2="158.333" gradientUnits="userSpaceOnUse"><stop stop-color="#fff"/><stop offset="1" stop-color="#807D7D" stop-opacity=".54"/></linearGradient><linearGradient id="i" x1="150" y1="66.666" x2="150" y2="216.667" gradientUnits="userSpaceOnUse"><stop stop-color="#fff"/><stop offset="1" stop-color="#807D7D" stop-opacity=".54"/></linearGradient><linearGradient id="j" x1="150" y1="75" x2="150" y2="225" gradientUnits="userSpaceOnUse"><stop stop-color="#fff"/><stop offset="1" stop-color="#807D7D" stop-opacity=".54"/></linearGradient><linearGradient id="k" x1="150" y1="83.334" x2="150" y2="233.333" gradientUnits="userSpaceOnUse"><stop stop-color="#fff"/><stop offset="1" stop-color="#807D7D" stop-opacity=".54"/></linearGradient><linearGradient id="l" x1="150" y1="91.666" x2="150" y2="241.667" gradientUnits="userSpaceOnUse"><stop stop-color="#fff"/><stop offset="1" stop-color="#807D7D" stop-opacity=".54"/></linearGradient><linearGradient id="m" x1="150" y1="100" x2="150" y2="250" gradientUnits="userSpaceOnUse"><stop stop-color="#fff"/><stop offset="1" stop-color="#807D7D" stop-opacity=".54"/></linearGradient><linearGradient id="n" x1="150" y1="108.333" x2="150" y2="258.333" gradientUnits="userSpaceOnUse"><stop stop-color="#fff"/><stop offset="1" stop-color="#807D7D" stop-opacity=".54"/></linearGradient><linearGradient id="o" x1="150" y1="116.667" x2="150" y2="266.667" gradientUnits="userSpaceOnUse"><stop stop-color="#fff"/><stop offset="1" stop-color="#807D7D" stop-opacity=".54"/></linearGradient></defs></svg>