<svg width="323" height="273" viewBox="0 0 323 273" fill="none" xmlns="http://www.w3.org/2000/svg">
<circle cx="195.126" cy="127.333" r="109.716" transform="rotate(-10 195.126 127.333)" stroke="url(#paint0_linear_466_3120)" stroke-width="0.4"/>
<circle cx="181.026" cy="137.791" r="101.865" transform="rotate(-10 181.026 137.791)" stroke="url(#paint1_linear_466_3120)" stroke-width="0.4"/>
<circle cx="166.926" cy="148.25" r="94.0135" transform="rotate(-10 166.926 148.25)" stroke="url(#paint2_linear_466_3120)" stroke-width="0.4"/>
<circle cx="152.825" cy="158.708" r="86.1623" transform="rotate(-10 152.825 158.708)" stroke="url(#paint3_linear_466_3120)" stroke-width="0.4"/>
<circle cx="138.725" cy="169.167" r="78.3112" transform="rotate(-10 138.725 169.167)" stroke="url(#paint4_linear_466_3120)" stroke-width="0.4"/>
<circle cx="124.625" cy="179.626" r="70.4601" transform="rotate(-10 124.625 179.626)" stroke="url(#paint5_linear_466_3120)" stroke-width="0.4"/>
<circle cx="110.524" cy="190.084" r="62.609" transform="rotate(-10 110.524 190.084)" stroke="url(#paint6_linear_466_3120)" stroke-width="0.4"/>
<circle cx="96.424" cy="200.543" r="54.7579" transform="rotate(-10 96.424 200.543)" stroke="url(#paint7_linear_466_3120)" stroke-width="0.4"/>
<circle cx="78.4577" cy="211.683" r="46.9067" transform="rotate(-10 78.4577 211.683)" stroke="url(#paint8_linear_466_3120)" stroke-width="0.4"/>
<circle cx="64.3574" cy="222.141" r="39.0556" transform="rotate(-10 64.3574 222.141)" stroke="url(#paint9_linear_466_3120)" stroke-width="0.4"/>
<circle cx="46.3908" cy="233.281" r="31.2045" transform="rotate(-10 46.3908 233.281)" stroke="url(#paint10_linear_466_3120)" stroke-width="0.4"/>
<circle cx="32.2905" cy="243.74" r="23.3534" transform="rotate(-10 32.2905 243.74)" stroke="url(#paint11_linear_466_3120)" stroke-width="0.4"/>
<circle cx="18.1904" cy="254.198" r="15.5022" transform="rotate(-10 18.1904 254.198)" stroke="url(#paint12_linear_466_3120)" stroke-width="0.4"/>
<defs>
<linearGradient id="paint0_linear_466_3120" x1="195.126" y1="17.4168" x2="195.126" y2="237.248" gradientUnits="userSpaceOnUse">
<stop stop-color="white" stop-opacity="0.18"/>
<stop offset="1" stop-color="white"/>
</linearGradient>
<linearGradient id="paint1_linear_466_3120" x1="181.026" y1="35.7268" x2="181.026" y2="239.856" gradientUnits="userSpaceOnUse">
<stop stop-color="white" stop-opacity="0.18"/>
<stop offset="1" stop-color="white"/>
</linearGradient>
<linearGradient id="paint2_linear_466_3120" x1="166.926" y1="54.0368" x2="166.926" y2="242.464" gradientUnits="userSpaceOnUse">
<stop stop-color="white" stop-opacity="0.18"/>
<stop offset="1" stop-color="white"/>
</linearGradient>
<linearGradient id="paint3_linear_466_3120" x1="152.825" y1="72.3458" x2="152.825" y2="245.071" gradientUnits="userSpaceOnUse">
<stop stop-color="white" stop-opacity="0.18"/>
<stop offset="1" stop-color="white"/>
</linearGradient>
<linearGradient id="paint4_linear_466_3120" x1="138.725" y1="90.6558" x2="138.725" y2="247.678" gradientUnits="userSpaceOnUse">
<stop stop-color="white" stop-opacity="0.18"/>
<stop offset="1" stop-color="white"/>
</linearGradient>
<linearGradient id="paint5_linear_466_3120" x1="124.625" y1="108.966" x2="124.625" y2="250.286" gradientUnits="userSpaceOnUse">
<stop stop-color="white" stop-opacity="0.18"/>
<stop offset="1" stop-color="white"/>
</linearGradient>
<linearGradient id="paint6_linear_466_3120" x1="110.524" y1="127.275" x2="110.524" y2="252.893" gradientUnits="userSpaceOnUse">
<stop stop-color="white" stop-opacity="0.18"/>
<stop offset="1" stop-color="white"/>
</linearGradient>
<linearGradient id="paint7_linear_466_3120" x1="96.424" y1="145.585" x2="96.424" y2="255.501" gradientUnits="userSpaceOnUse">
<stop stop-color="white" stop-opacity="0.18"/>
<stop offset="1" stop-color="white"/>
</linearGradient>
<linearGradient id="paint8_linear_466_3120" x1="78.4577" y1="164.576" x2="78.4577" y2="258.79" gradientUnits="userSpaceOnUse">
<stop stop-color="white" stop-opacity="0.18"/>
<stop offset="1" stop-color="white"/>
</linearGradient>
<linearGradient id="paint9_linear_466_3120" x1="64.3574" y1="182.885" x2="64.3574" y2="261.397" gradientUnits="userSpaceOnUse">
<stop stop-color="white" stop-opacity="0.18"/>
<stop offset="1" stop-color="white"/>
</linearGradient>
<linearGradient id="paint10_linear_466_3120" x1="46.3908" y1="201.877" x2="46.3908" y2="264.686" gradientUnits="userSpaceOnUse">
<stop stop-color="white" stop-opacity="0.18"/>
<stop offset="1" stop-color="white"/>
</linearGradient>
<linearGradient id="paint11_linear_466_3120" x1="32.2905" y1="220.187" x2="32.2905" y2="267.293" gradientUnits="userSpaceOnUse">
<stop stop-color="white" stop-opacity="0.18"/>
<stop offset="1" stop-color="white"/>
</linearGradient>
<linearGradient id="paint12_linear_466_3120" x1="18.1904" y1="238.496" x2="18.1904" y2="269.9" gradientUnits="userSpaceOnUse">
<stop stop-color="white" stop-opacity="0.18"/>
<stop offset="1" stop-color="white"/>
</linearGradient>
</defs>
</svg>
